<svg xmlns="http://www.w3.org/2000/svg" width="245.669" height="340.157" viewBox="0 0 65 90" fill="#79427b"><rect width="65" height="90" rx="5" fill="#ecece7"/><path d="M32.5 24.824c-3.052 5.377-9.703 8.975-14.245 13.516-2.695 2.274-4.188 5.944-3.644 9.452.62 4.827 5.77 8.868 10.636 8.791 2.686.027 6.236-1.962 7.253-3.997 1.017 2.035 4.567 4.024 7.253 3.997 4.866.077 10.016-3.964 10.636-8.791.544-3.508-.949-7.177-3.644-9.452-4.541-4.542-11.193-8.14-14.245-13.516zm0 2.08c2.653 4.673 8.432 7.799 12.379 11.746 2.342 1.977 3.64 5.165 3.167 8.213-.538 4.194-5.015 7.706-9.243 7.639-2.334.024-5.419-1.705-6.303-3.473-.884 1.768-3.969 3.497-6.303 3.473-4.228.067-8.704-3.445-9.242-7.639-.473-3.048.825-6.237 3.167-8.213 3.947-3.947 9.726-7.073 12.379-11.746z"/><path d="M32.5 49.787s0 2.798-3.231 8.394c-6.462 11.192-9.693 5.596 3.231 5.596s9.693 5.596 3.231-5.596c-3.231-5.596-3.231-8.394-3.231-8.394zm0 3.375s0 1.732 2 5.197c4.001 6.929 6.001 3.464-2 3.464s-6.001 3.465-2-3.464c2-3.465 2-5.197 2-5.197z"/><path d="M32.5 28.582c-2.33 4.104-7.406 6.851-10.873 10.317-2.057 1.736-3.196 4.537-2.781 7.214.473 3.684 4.404 6.769 8.117 6.71 2.05.021 4.76-1.498 5.537-3.051.777 1.553 3.487 3.072 5.537 3.051 3.714.059 7.645-3.026 8.118-6.71.415-2.677-.725-5.478-2.782-7.214-3.466-3.467-8.543-6.213-10.873-10.317zm0 2c1.945 3.427 6.184 5.72 9.079 8.614 1.717 1.45 2.669 3.788 2.323 6.023-.395 3.076-3.677 5.652-6.778 5.603-1.712.017-3.974-1.251-4.623-2.548-.648 1.297-2.911 2.565-4.623 2.548-3.101.049-6.383-2.527-6.778-5.603-.347-2.235.605-4.574 2.322-6.023 2.894-2.894 7.133-5.188 9.079-8.614zm3.709 18.242c2.488.039 5.122-2.027 5.439-4.495.278-1.794-.486-3.67-1.864-4.833-2.322-2.322-5.724-4.162-7.285-6.912-1.561 2.75-4.962 4.59-7.284 6.912-1.378 1.163-2.142 3.039-1.864 4.833.317 2.468 2.95 4.535 5.439 4.495 1.373.014 3.189-1.003 3.709-2.044.52 1.041 2.336 2.058 3.709 2.044zm-3.709 11c-2.963 0-2.222 1.283-.741-1.283s0-2.566 1.481 0 2.222 1.283-.741 1.283z"/><path d="M2.374 16.061h7.242v-1.939H7.353V4.046H5.576c-.764.488-1.597.797-2.801 1.025v1.477h2.178v7.618H2.365zm11.956.257c2.46 0 4.065-2.144 4.065-6.294s-1.614-6.2-4.065-6.2-4.082 2.033-4.082 6.2c0 4.15 1.623 6.294 4.082 6.294zm0-1.87c-1.042 0-1.819-1.042-1.819-4.424 0-3.365.781-4.347 1.819-4.347s1.802.974 1.802 4.347c0 3.382-.764 4.424-1.802 4.424z"/><path d="M-119-55.9h8.48v-2.27h-2.65v-11.8h-2.08c-.895.572-1.87.933-3.28 1.2v1.73h2.55v8.92h-3.03zm14 .3c2.88 0 4.76-2.51 4.76-7.37s-1.89-7.26-4.76-7.26-4.78 2.38-4.78 7.26c0 4.86 1.9 7.37 4.78 7.37zm0-2.19c-1.22 0-2.13-1.22-2.13-5.18 0-3.94.914-5.09 2.13-5.09s2.11 1.14 2.11 5.09c0 3.96-.895 5.18-2.11 5.18z" transform="matrix(-.854 0 0 -.854 -38.9 26.2)"/></svg>