<svg xmlns="http://www.w3.org/2000/svg" width="245.669" height="340.157" viewBox="0 0 65 90" fill="#309c63"><rect width="65" height="90" rx="5" fill="#ecece7"/><path d="M32.421 25.171a10 10 0 0 0-9.697 12.101 10 10 0 0 0-9.224 9.97 10 10 0 0 0 10 10 10 10 0 0 0 9-5.642 10 10 0 0 0 9 5.641 10 10 0 0 0 10-10 10 10 0 0 0-9.223-9.969 10 10 0 0 0-9.856-12.102zm.027 2.067a8.71 8.71 0 0 1 8.568 10.542 8.71 8.71 0 0 1 8.035 8.684 8.71 8.71 0 0 1-8.711 8.711 8.71 8.71 0 0 1-7.84-4.914 8.71 8.71 0 0 1-7.84 4.914 8.71 8.71 0 0 1-8.711-8.711 8.71 8.71 0 0 1 8.034-8.685 8.71 8.71 0 0 1 8.465-10.541z"/><path d="M32.5 49.705s0 2.75-3.176 8.25c-6.351 11-9.526 5.5 3.176 5.5s9.526 5.5 3.175-5.5c-3.175-5.5-3.175-8.25-3.175-8.25zm0 3.946s0 1.504 1.736 4.512c3.473 6.016 5.21 3.008-1.736 3.008s-5.21 3.008-1.737-3.008c1.737-3.008 1.737-4.512 1.737-4.512zm-.039-24.444a7.48 7.48 0 0 0-5.252 2.192c-1.796 1.796-2.558 4.38-2.025 6.864-1.778.139-3.449.908-4.71 2.169-1.403 1.403-2.192 3.307-2.192 5.291a7.48 7.48 0 0 0 2.192 5.291c2.922 2.922 7.66 2.922 10.582 0a7.49 7.49 0 0 0 1.444-2.03 7.48 7.48 0 0 0 1.443 2.03c1.403 1.403 3.307 2.192 5.291 2.192a7.48 7.48 0 0 0 5.291-2.192c1.403-1.404 2.192-3.307 2.192-5.291a7.48 7.48 0 0 0-2.192-5.291c-1.261-1.261-2.932-2.03-4.71-2.169.534-2.483-.228-5.068-2.024-6.864-1.413-1.413-3.332-2.202-5.33-2.192zm.06 2.499a5.92 5.92 0 0 1 4.168 1.735c1.422 1.422 2.026 3.468 1.603 5.434a5.93 5.93 0 0 1 3.729 1.717c1.111 1.111 1.735 2.618 1.735 4.189s-.624 3.078-1.735 4.189-2.618 1.735-4.189 1.735-3.078-.624-4.189-1.735a5.93 5.93 0 0 1-1.143-1.607 5.93 5.93 0 0 1-1.143 1.607c-1.111 1.111-2.618 1.735-4.189 1.735s-3.078-.624-4.189-1.735-1.735-2.618-1.735-4.189.624-3.078 1.735-4.189a5.92 5.92 0 0 1 3.729-1.717c-.423-1.966.181-4.012 1.602-5.434a5.93 5.93 0 0 1 4.21-1.735zm-.026 2.5c-1.156.001-2.264.461-3.081 1.278-1.048 1.048-1.492 2.556-1.181 4.004-1.037.081-2.012.529-2.748 1.265-.819.819-1.279 1.929-1.279 3.087s.46 2.268 1.279 3.087c1.705 1.705 4.469 1.705 6.173 0a4.35 4.35 0 0 0 .842-1.184 4.35 4.35 0 0 0 .842 1.184c1.705 1.705 4.469 1.705 6.173 0 .819-.819 1.279-1.929 1.279-3.087s-.46-2.268-1.279-3.087c-.736-.736-1.71-1.184-2.748-1.265a4.36 4.36 0 0 0-1.181-4.004c-.82-.82-1.933-1.28-3.092-1.278zm.005 26.099c-2.956 0-2.217 1.28-.739-1.28s0-2.56 1.478 0 2.217 1.28-.739 1.28z"/><path d="M10.3 17.3c2.86 0 4.74-1.64 4.74-3.77 0-1.92-1.07-3.07-2.36-3.77v-.095c.933-.667 1.81-1.83 1.81-3.22 0-2.25-1.6-3.75-4.1-3.75-2.44 0-4.25 1.45-4.25 3.71 0 1.5.781 2.57 1.87 3.35v.095c-1.31.686-2.42 1.87-2.42 3.68 0 2.21 2.02 3.77 4.71 3.77zm.895-8.32c-1.49-.591-2.57-1.24-2.57-2.57 0-1.12.762-1.75 1.71-1.75 1.18 0 1.87.819 1.87 1.96 0 .838-.324 1.64-1.01 2.36zm-.819 6.34c-1.31 0-2.36-.819-2.36-2.1 0-1.05.533-2 1.3-2.61 1.83.743 3.12 1.35 3.12 2.82 0 1.22-.857 1.89-2.06 1.89zM55.1 72.66c-2.86 0-4.74 1.64-4.74 3.77 0 1.92 1.07 3.07 2.36 3.77v.095c-.933.667-1.81 1.83-1.81 3.22 0 2.25 1.6 3.75 4.1 3.75 2.44 0 4.25-1.45 4.25-3.71 0-1.5-.781-2.57-1.87-3.35v-.095c1.31-.686 2.42-1.87 2.42-3.68 0-2.21-2.02-3.77-4.71-3.77zm-.895 8.32c1.49.591 2.57 1.24 2.57 2.57 0 1.12-.762 1.75-1.71 1.75-1.18 0-1.87-.819-1.87-1.96 0-.838.324-1.64 1.01-2.36zm.819-6.34c1.31 0 2.36.819 2.36 2.1 0 1.05-.533 2-1.3 2.61-1.83-.743-3.12-1.35-3.12-2.82 0-1.22.857-1.89 2.06-1.89z"/></svg>