<svg xmlns="http://www.w3.org/2000/svg" width="245.669" height="340.157" viewBox="0 0 65 90" fill="#c93038"><rect width="65" height="90" rx="5" fill="#ecece7"/><path d="M25.246 29.122c-4.866-.077-10.016 3.964-10.636 8.791-.544 3.508.949 7.177 3.644 9.451 4.541 4.542 11.193 8.14 14.245 13.517 3.052-5.377 9.703-8.975 14.244-13.517 2.695-2.274 4.189-5.944 3.645-9.451-.62-4.827-5.77-8.868-10.636-8.791-2.686-.027-6.236 1.962-7.253 3.997-1.017-2.035-4.568-4.024-7.254-3.997zm1.261 2.762c2.219-.022 5.152 1.621 5.992 3.302.841-1.681 3.773-3.324 5.992-3.302 4.019-.064 8.274 3.274 8.786 7.262.449 2.898-.784 5.929-3.011 7.808-3.752 3.752-9.245 6.724-11.767 11.166-2.522-4.442-8.016-7.414-11.768-11.166-2.226-1.879-3.46-4.91-3.011-7.808.512-3.987 4.767-7.325 8.786-7.262zm.901 1.969c-3.416-.054-7.032 2.783-7.467 6.172-.382 2.462.666 5.039 2.558 6.635 3.188 3.188 7.858 5.714 10.001 9.489 2.143-3.775 6.812-6.3 10-9.489 1.892-1.597 2.94-4.173 2.559-6.635-.435-3.388-4.051-6.226-7.467-6.172-1.886-.019-4.377 1.378-5.092 2.807-.714-1.429-3.207-2.826-5.092-2.807zm1.018 2.23c1.508-.015 3.502 1.102 4.074 2.245.571-1.143 2.566-2.26 4.074-2.245 2.733-.043 5.625 2.226 5.973 4.937.305 1.97-.533 4.031-2.046 5.308-2.551 2.551-6.286 4.571-8.001 7.591-1.714-3.02-5.449-5.041-8-7.591-1.514-1.277-2.352-3.338-2.047-5.308.348-2.711 3.241-4.98 5.973-4.937zm1.094 2.393c-1.999-.032-4.115 1.629-4.37 3.612-.223 1.441.39 2.949 1.497 3.883 1.866 1.866 4.599 3.344 5.853 5.554 1.254-2.209 3.987-3.688 5.852-5.554 1.107-.934 1.721-2.442 1.497-3.883-.255-1.983-2.371-3.644-4.37-3.612-1.104-.011-2.562.806-2.98 1.642-.418-.836-1.877-1.653-2.98-1.642z"/><path d="M2.374 16.061h7.242v-1.939H7.353V4.046H5.576c-.764.488-1.597.797-2.801 1.025v1.477h2.178v7.618H2.365zm11.956.257c2.46 0 4.065-2.144 4.065-6.294s-1.614-6.2-4.065-6.2-4.082 2.033-4.082 6.2c0 4.15 1.623 6.294 4.082 6.294zm0-1.87c-1.042 0-1.819-1.042-1.819-4.424 0-3.365.781-4.347 1.819-4.347s1.802.974 1.802 4.347c0 3.382-.764 4.424-1.802 4.424z"/><path d="M-119-55.9h8.48v-2.27h-2.65v-11.8h-2.08c-.895.572-1.87.933-3.28 1.2v1.73h2.55v8.92h-3.03zm14 .3c2.88 0 4.76-2.51 4.76-7.37s-1.89-7.26-4.76-7.26-4.78 2.38-4.78 7.26c0 4.86 1.9 7.37 4.78 7.37zm0-2.19c-1.22 0-2.13-1.22-2.13-5.18 0-3.94.914-5.09 2.13-5.09s2.11 1.14 2.11 5.09c0 3.96-.895 5.18-2.11 5.18z" transform="matrix(-.854 0 0 -.854 -38.9 26.2)"/></svg>