<svg xmlns="http://www.w3.org/2000/svg" width="245.669" height="340.157" viewBox="0 0 65 90" fill="#c93038"><rect width="65" height="90" rx="5" fill="#ecece7"/><path d="M25.246 29.122c-4.866-.077-10.016 3.964-10.636 8.791-.544 3.508.949 7.177 3.644 9.451 4.541 4.542 11.193 8.14 14.245 13.517 3.052-5.377 9.703-8.975 14.244-13.517 2.695-2.274 4.189-5.944 3.645-9.451-.62-4.827-5.77-8.868-10.636-8.791-2.686-.027-6.236 1.962-7.253 3.997-1.017-2.035-4.568-4.024-7.254-3.997zm1.261 2.762c2.219-.022 5.152 1.621 5.992 3.302.841-1.681 3.773-3.324 5.992-3.302 4.019-.064 8.274 3.274 8.786 7.262.449 2.898-.784 5.929-3.011 7.808-3.752 3.752-9.245 6.724-11.767 11.166-2.522-4.442-8.016-7.414-11.768-11.166-2.226-1.879-3.46-4.91-3.011-7.808.512-3.987 4.767-7.325 8.786-7.262zm.901 1.969c-3.416-.054-7.032 2.783-7.467 6.172-.382 2.462.666 5.039 2.558 6.635 3.188 3.188 7.858 5.714 10.001 9.489 2.143-3.775 6.812-6.3 10-9.489 1.892-1.597 2.94-4.173 2.559-6.635-.435-3.388-4.051-6.226-7.467-6.172-1.886-.019-4.377 1.378-5.092 2.807-.714-1.429-3.207-2.826-5.092-2.807zm1.018 2.23c1.508-.015 3.502 1.102 4.074 2.245.571-1.143 2.566-2.26 4.074-2.245 2.733-.043 5.625 2.226 5.973 4.937.305 1.97-.533 4.031-2.046 5.308-2.551 2.551-6.286 4.571-8.001 7.591-1.714-3.02-5.449-5.041-8-7.591-1.514-1.277-2.352-3.338-2.047-5.308.348-2.711 3.241-4.98 5.973-4.937zm1.094 2.393c-1.999-.032-4.115 1.629-4.37 3.612-.223 1.441.39 2.949 1.497 3.883 1.866 1.866 4.599 3.344 5.853 5.554 1.254-2.209 3.987-3.688 5.852-5.554 1.107-.934 1.721-2.442 1.497-3.883-.255-1.983-2.371-3.644-4.37-3.612-1.104-.011-2.562.806-2.98 1.642-.418-.836-1.877-1.653-2.98-1.642z"/><path d="M10.3 17.3c2.86 0 4.74-1.64 4.74-3.77 0-1.92-1.07-3.07-2.36-3.77v-.095c.933-.667 1.81-1.83 1.81-3.22 0-2.25-1.6-3.75-4.1-3.75-2.44 0-4.25 1.45-4.25 3.71 0 1.5.781 2.57 1.87 3.35v.095c-1.31.686-2.42 1.87-2.42 3.68 0 2.21 2.02 3.77 4.71 3.77zm.895-8.32c-1.49-.591-2.57-1.24-2.57-2.57 0-1.12.762-1.75 1.71-1.75 1.18 0 1.87.819 1.87 1.96 0 .838-.324 1.64-1.01 2.36zm-.819 6.34c-1.31 0-2.36-.819-2.36-2.1 0-1.05.533-2 1.3-2.61 1.83.743 3.12 1.35 3.12 2.82 0 1.22-.857 1.89-2.06 1.89zM55.1 72.66c-2.86 0-4.74 1.64-4.74 3.77 0 1.92 1.07 3.07 2.36 3.77v.095c-.933.667-1.81 1.83-1.81 3.22 0 2.25 1.6 3.75 4.1 3.75 2.44 0 4.25-1.45 4.25-3.71 0-1.5-.781-2.57-1.87-3.35v-.095c1.31-.686 2.42-1.87 2.42-3.68 0-2.21-2.02-3.77-4.71-3.77zm-.895 8.32c1.49.591 2.57 1.24 2.57 2.57 0 1.12-.762 1.75-1.71 1.75-1.18 0-1.87-.819-1.87-1.96 0-.838.324-1.64 1.01-2.36zm.819-6.34c1.31 0 2.36.819 2.36 2.1 0 1.05-.533 2-1.3 2.61-1.83-.743-3.12-1.35-3.12-2.82 0-1.22.857-1.89 2.06-1.89z"/></svg>