<svg xmlns="http://www.w3.org/2000/svg" width="245.669" height="340.157" viewBox="0 0 65 90" fill="#3978a8"><rect width="65" height="90" rx="5" fill="#ecece7"/><path d="M33.505 24.97c-1.139 0-2.276 3.445-7.764 10.309-10.998 13.754-10.998 5.698 0 19.451s4.558 13.753 15.555 0 10.998-5.698 0-19.451c-5.512-6.864-6.625-10.309-7.764-10.309zm0 2.064c1.02 0 2.043 3.074 6.97 9.249 9.858 12.322 9.858 5.115 0 17.437s-4.081 12.323-13.939 0-9.858-5.114 0-17.437c4.929-6.175 5.963-9.249 6.969-9.249zm0 2.176c-.904 0-1.807 2.73-6.174 8.189-8.719 10.918-8.719 4.531 0 15.423 8.719 10.918 3.604 10.918 12.349 0 8.719-10.918 8.719-4.532 0-15.423-4.373-5.459-5.274-8.189-6.175-8.189zm0 2.889c.739 0 1.481 2.234 5.062 6.705 7.155 8.931 7.155 3.71 0 12.641s-2.968 8.93-10.123 0-7.155-3.71 0-12.641c3.577-4.478 4.32-6.705 5.061-6.705zm-4.009 17.597c-5.302-6.641-5.302-2.76 0-9.42 5.302-6.641 2.203-6.641 7.52 0 5.302 6.641 5.302 2.76 0 9.42-5.302 6.641-2.203 6.641-7.52 0z"/><path d="M2.374 16.061h7.242v-1.939H7.353V4.046H5.576c-.764.488-1.597.797-2.801 1.025v1.477h2.178v7.618H2.365zm11.956.257c2.46 0 4.065-2.144 4.065-6.294s-1.614-6.2-4.065-6.2-4.082 2.033-4.082 6.2c0 4.15 1.623 6.294 4.082 6.294zm0-1.87c-1.042 0-1.819-1.042-1.819-4.424 0-3.365.781-4.347 1.819-4.347s1.802.974 1.802 4.347c0 3.382-.764 4.424-1.802 4.424z"/><path d="M-119-55.9h8.48v-2.27h-2.65v-11.8h-2.08c-.895.572-1.87.933-3.28 1.2v1.73h2.55v8.92h-3.03zm14 .3c2.88 0 4.76-2.51 4.76-7.37s-1.89-7.26-4.76-7.26-4.78 2.38-4.78 7.26c0 4.86 1.9 7.37 4.78 7.37zm0-2.19c-1.22 0-2.13-1.22-2.13-5.18 0-3.94.914-5.09 2.13-5.09s2.11 1.14 2.11 5.09c0 3.96-.895 5.18-2.11 5.18z" transform="matrix(-.854 0 0 -.854 -38.9 26.2)"/></svg>