<svg xmlns="http://www.w3.org/2000/svg" width="245.669" height="340.157" viewBox="0 0 65 90" fill="#3978a8"><rect width="65" height="90" rx="5" fill="#ecece7"/><path d="M33.505 24.97c-1.139 0-2.276 3.445-7.764 10.309-10.998 13.754-10.998 5.698 0 19.451s4.558 13.753 15.555 0 10.998-5.698 0-19.451c-5.512-6.864-6.625-10.309-7.764-10.309zm0 2.064c1.02 0 2.043 3.074 6.97 9.249 9.858 12.322 9.858 5.115 0 17.437s-4.081 12.323-13.939 0-9.858-5.114 0-17.437c4.929-6.175 5.963-9.249 6.969-9.249zm0 2.176c-.904 0-1.807 2.73-6.174 8.189-8.719 10.918-8.719 4.531 0 15.423 8.719 10.918 3.604 10.918 12.349 0 8.719-10.918 8.719-4.532 0-15.423-4.373-5.459-5.274-8.189-6.175-8.189zm0 2.889c.739 0 1.481 2.234 5.062 6.705 7.155 8.931 7.155 3.71 0 12.641s-2.968 8.93-10.123 0-7.155-3.71 0-12.641c3.577-4.478 4.32-6.705 5.061-6.705zm-4.009 17.597c-5.302-6.641-5.302-2.76 0-9.42 5.302-6.641 2.203-6.641 7.52 0 5.302 6.641 5.302 2.76 0 9.42-5.302 6.641-2.203 6.641-7.52 0z"/><path d="M10.4 16h-.279q-3.43 0-5.34-1.9-1.91-1.9-1.91-5.28 0-3.38 1.9-5.29 1.91-1.92 5.25-1.92 3.38 0 5.26 1.9 1.89 1.9 1.89 5.31 0 2.34-1 4.04-.995 1.69-2.87 2.55l2.8 3.13h-3.41zm-.381-11.8q-1.64 0-2.54 1.21-.902 1.21-.902 3.4 0 2.23.884 3.42.884 1.18 2.56 1.18 1.65 0 2.55-1.21.902-1.21.902-3.4 0-2.2-.902-3.4-.902-1.21-2.55-1.21zM54.62 74.02h.279q3.43 0 5.34 1.9 1.91 1.9 1.91 5.28 0 3.38-1.9 5.29-1.91 1.92-5.25 1.92-3.38 0-5.26-1.9-1.89-1.9-1.89-5.31 0-2.34 1-4.04.995-1.69 2.87-2.55l-2.8-3.13h3.41zm.381 11.8q1.64 0 2.54-1.21.902-1.21.902-3.4 0-2.23-.884-3.42-.884-1.18-2.56-1.18-1.65 0-2.55 1.21-.902 1.21-.902 3.4 0 2.2.902 3.4.902 1.21 2.55 1.21z"/></svg>