<svg xmlns="http://www.w3.org/2000/svg" width="245.669" height="340.157" viewBox="0 0 65 90" fill="#3978a8"><rect width="65" height="90" rx="5" fill="#ecece7"/><path d="M33.505 24.97c-1.139 0-2.276 3.445-7.764 10.309-10.998 13.754-10.998 5.698 0 19.451s4.558 13.753 15.555 0 10.998-5.698 0-19.451c-5.512-6.864-6.625-10.309-7.764-10.309zm0 2.064c1.02 0 2.043 3.074 6.97 9.249 9.858 12.322 9.858 5.115 0 17.437s-4.081 12.323-13.939 0-9.858-5.114 0-17.437c4.929-6.175 5.963-9.249 6.969-9.249zm0 2.176c-.904 0-1.807 2.73-6.174 8.189-8.719 10.918-8.719 4.531 0 15.423 8.719 10.918 3.604 10.918 12.349 0 8.719-10.918 8.719-4.532 0-15.423-4.373-5.459-5.274-8.189-6.175-8.189zm0 2.889c.739 0 1.481 2.234 5.062 6.705 7.155 8.931 7.155 3.71 0 12.641s-2.968 8.93-10.123 0-7.155-3.71 0-12.641c3.577-4.478 4.32-6.705 5.061-6.705zm-4.009 17.597c-5.302-6.641-5.302-2.76 0-9.42 5.302-6.641 2.203-6.641 7.52 0 5.302 6.641 5.302 2.76 0 9.42-5.302 6.641-2.203 6.641-7.52 0z"/><path d="M5.343 17.179h9.45v-2.36h-3.05c-.667 0-1.6.076-2.31.152 2.57-2.51 4.69-5.26 4.69-7.81 0-2.63-1.77-4.34-4.44-4.34-1.92 0-3.18.743-4.48 2.13l1.52 1.52c.724-.781 1.56-1.45 2.59-1.45 1.35 0 2.11.857 2.11 2.29 0 2.17-2.27 4.82-6.1 8.25zM59.63 72.9h-9.45v2.36h3.05c.667 0 1.6-.076 2.31-.152-2.57 2.51-4.69 5.26-4.69 7.81 0 2.63 1.77 4.34 4.44 4.34 1.92 0 3.18-.743 4.48-2.13l-1.52-1.52c-.724.781-1.56 1.45-2.59 1.45-1.35 0-2.11-.857-2.11-2.29 0-2.17 2.27-4.82 6.1-8.25z"/></svg>