<svg xmlns="http://www.w3.org/2000/svg" width="245.669" height="340.157" viewBox="0 0 65 90" fill="#3978a8"><rect width="65" height="90" rx="5" fill="#ecece7"/><path d="M33.505 24.97c-1.139 0-2.276 3.445-7.764 10.309-10.998 13.754-10.998 5.698 0 19.451s4.558 13.753 15.555 0 10.998-5.698 0-19.451c-5.512-6.864-6.625-10.309-7.764-10.309zm0 2.064c1.02 0 2.043 3.074 6.97 9.249 9.858 12.322 9.858 5.115 0 17.437s-4.081 12.323-13.939 0-9.858-5.114 0-17.437c4.929-6.175 5.963-9.249 6.969-9.249zm0 2.176c-.904 0-1.807 2.73-6.174 8.189-8.719 10.918-8.719 4.531 0 15.423 8.719 10.918 3.604 10.918 12.349 0 8.719-10.918 8.719-4.532 0-15.423-4.373-5.459-5.274-8.189-6.175-8.189zm0 2.889c.739 0 1.481 2.234 5.062 6.705 7.155 8.931 7.155 3.71 0 12.641s-2.968 8.93-10.123 0-7.155-3.71 0-12.641c3.577-4.478 4.32-6.705 5.061-6.705zm-4.009 17.597c-5.302-6.641-5.302-2.76 0-9.42 5.302-6.641 2.203-6.641 7.52 0 5.302 6.641 5.302 2.76 0 9.42-5.302 6.641-2.203 6.641-7.52 0z"/><path d="M9.88 17.346c2.69 0 4.95-1.5 4.95-4.1 0-1.85-1.22-3.03-2.8-3.47v-.095c1.49-.591 2.34-1.7 2.34-3.22 0-2.4-1.85-3.75-4.57-3.75-1.66 0-3.01.667-4.23 1.73L7 6.151c.838-.781 1.66-1.24 2.67-1.24 1.2 0 1.89.648 1.89 1.75 0 1.26-.838 2.15-3.43 2.15v2c3.07 0 3.89.876 3.89 2.25 0 1.28-.972 1.98-2.4 1.98-1.28 0-2.31-.629-3.14-1.45l-1.31 1.77c.991 1.12 2.5 1.96 4.72 1.96zM55.2 72.6c-2.69 0-4.95 1.5-4.95 4.1 0 1.85 1.22 3.03 2.8 3.47v.095c-1.49.591-2.34 1.7-2.34 3.22 0 2.4 1.85 3.75 4.57 3.75 1.66 0 3.01-.667 4.23-1.73l-1.43-1.71c-.838.781-1.66 1.24-2.67 1.24-1.2 0-1.89-.648-1.89-1.75 0-1.26.838-2.15 3.43-2.15v-2c-3.07 0-3.89-.876-3.89-2.25 0-1.28.972-1.98 2.4-1.98 1.28 0 2.31.629 3.14 1.45l1.31-1.77c-.991-1.12-2.5-1.96-4.72-1.96z"/></svg>