<svg xmlns="http://www.w3.org/2000/svg" width="245.669" height="340.157" viewBox="0 0 65 90" fill="#3978a8"><rect width="65" height="90" rx="5" fill="#ecece7"/><path d="M33.505 24.97c-1.139 0-2.276 3.445-7.764 10.309-10.998 13.754-10.998 5.698 0 19.451s4.558 13.753 15.555 0 10.998-5.698 0-19.451c-5.512-6.864-6.625-10.309-7.764-10.309zm0 2.064c1.02 0 2.043 3.074 6.97 9.249 9.858 12.322 9.858 5.115 0 17.437s-4.081 12.323-13.939 0-9.858-5.114 0-17.437c4.929-6.175 5.963-9.249 6.969-9.249zm0 2.176c-.904 0-1.807 2.73-6.174 8.189-8.719 10.918-8.719 4.531 0 15.423 8.719 10.918 3.604 10.918 12.349 0 8.719-10.918 8.719-4.532 0-15.423-4.373-5.459-5.274-8.189-6.175-8.189zm0 2.889c.739 0 1.481 2.234 5.062 6.705 7.155 8.931 7.155 3.71 0 12.641s-2.968 8.93-10.123 0-7.155-3.71 0-12.641c3.577-4.478 4.32-6.705 5.061-6.705zm-4.009 17.597c-5.302-6.641-5.302-2.76 0-9.42 5.302-6.641 2.203-6.641 7.52 0 5.302 6.641 5.302 2.76 0 9.42-5.302 6.641-2.203 6.641-7.52 0z"/><path d="M8 17.1h2.84c.229-5.52.667-8.4 3.94-12.4V2.99H5.41v2.36h6.34C9.06 9.08 8.24 12.21 8 17.15zm48.6 55.84h-2.84c-.229 5.52-.667 8.4-3.94 12.4v1.71h9.37v-2.36h-6.34c2.69-3.73 3.51-6.86 3.75-11.8z"/></svg>