<svg xmlns="http://www.w3.org/2000/svg" width="245.669" height="340.157" viewBox="0 0 65 90" fill="#3978a8"><rect width="65" height="90" rx="5" fill="#ecece7"/><path d="M33.505 24.97c-1.139 0-2.276 3.445-7.764 10.309-10.998 13.754-10.998 5.698 0 19.451s4.558 13.753 15.555 0 10.998-5.698 0-19.451c-5.512-6.864-6.625-10.309-7.764-10.309zm0 2.064c1.02 0 2.043 3.074 6.97 9.249 9.858 12.322 9.858 5.115 0 17.437s-4.081 12.323-13.939 0-9.858-5.114 0-17.437c4.929-6.175 5.963-9.249 6.969-9.249zm0 2.176c-.904 0-1.807 2.73-6.174 8.189-8.719 10.918-8.719 4.531 0 15.423 8.719 10.918 3.604 10.918 12.349 0 8.719-10.918 8.719-4.532 0-15.423-4.373-5.459-5.274-8.189-6.175-8.189zm0 2.889c.739 0 1.481 2.234 5.062 6.705 7.155 8.931 7.155 3.71 0 12.641s-2.968 8.93-10.123 0-7.155-3.71 0-12.641c3.577-4.478 4.32-6.705 5.061-6.705zm-4.009 17.597c-5.302-6.641-5.302-2.76 0-9.42 5.302-6.641 2.203-6.641 7.52 0 5.302 6.641 5.302 2.76 0 9.42-5.302 6.641-2.203 6.641-7.52 0z"/><path d="M10.3 17.3c2.86 0 4.74-1.64 4.74-3.77 0-1.92-1.07-3.07-2.36-3.77v-.095c.933-.667 1.81-1.83 1.81-3.22 0-2.25-1.6-3.75-4.1-3.75-2.44 0-4.25 1.45-4.25 3.71 0 1.5.781 2.57 1.87 3.35v.095c-1.31.686-2.42 1.87-2.42 3.68 0 2.21 2.02 3.77 4.71 3.77zm.895-8.32c-1.49-.591-2.57-1.24-2.57-2.57 0-1.12.762-1.75 1.71-1.75 1.18 0 1.87.819 1.87 1.96 0 .838-.324 1.64-1.01 2.36zm-.819 6.34c-1.31 0-2.36-.819-2.36-2.1 0-1.05.533-2 1.3-2.61 1.83.743 3.12 1.35 3.12 2.82 0 1.22-.857 1.89-2.06 1.89zM55.1 72.66c-2.86 0-4.74 1.64-4.74 3.77 0 1.92 1.07 3.07 2.36 3.77v.095c-.933.667-1.81 1.83-1.81 3.22 0 2.25 1.6 3.75 4.1 3.75 2.44 0 4.25-1.45 4.25-3.71 0-1.5-.781-2.57-1.87-3.35v-.095c1.31-.686 2.42-1.87 2.42-3.68 0-2.21-2.02-3.77-4.71-3.77zm-.895 8.32c1.49.591 2.57 1.24 2.57 2.57 0 1.12-.762 1.75-1.71 1.75-1.18 0-1.87-.819-1.87-1.96 0-.838.324-1.64 1.01-2.36zm.819-6.34c1.31 0 2.36.819 2.36 2.1 0 1.05-.533 2-1.3 2.61-1.83-.743-3.12-1.35-3.12-2.82 0-1.22.857-1.89 2.06-1.89z"/></svg>