<svg xmlns="http://www.w3.org/2000/svg" width="245.669" height="340.157" viewBox="0 0 65 90" fill="#3978a8"><rect width="65" height="90" rx="5" fill="#ecece7"/><path d="M33.505 24.97c-1.139 0-2.276 3.445-7.764 10.309-10.998 13.754-10.998 5.698 0 19.451s4.558 13.753 15.555 0 10.998-5.698 0-19.451c-5.512-6.864-6.625-10.309-7.764-10.309zm0 2.064c1.02 0 2.043 3.074 6.97 9.249 9.858 12.322 9.858 5.115 0 17.437s-4.081 12.323-13.939 0-9.858-5.114 0-17.437c4.929-6.175 5.963-9.249 6.969-9.249zm0 2.176c-.904 0-1.807 2.73-6.174 8.189-8.719 10.918-8.719 4.531 0 15.423 8.719 10.918 3.604 10.918 12.349 0 8.719-10.918 8.719-4.532 0-15.423-4.373-5.459-5.274-8.189-6.175-8.189zm0 2.889c.739 0 1.481 2.234 5.062 6.705 7.155 8.931 7.155 3.71 0 12.641s-2.968 8.93-10.123 0-7.155-3.71 0-12.641c3.577-4.478 4.32-6.705 5.061-6.705zm-4.009 17.597c-5.302-6.641-5.302-2.76 0-9.42 5.302-6.641 2.203-6.641 7.52 0 5.302 6.641 5.302 2.76 0 9.42-5.302 6.641-2.203 6.641-7.52 0z"/><path d="M7.8 7.5c0-1.73.857-2.59 1.9-2.59 1.2 0 2.17.952 2.42 3.51-.648 1.09-1.54 1.52-2.32 1.52-1.22 0-2-.781-2-2.44zm1.52 9.93c2.8 0 5.41-2.31 5.41-7.64 0-4.9-2.4-6.99-5.07-6.99-2.42 0-4.44 1.81-4.44 4.71 0 2.99 1.7 4.44 4.04 4.44.952 0 2.15-.572 2.9-1.52-.133 3.52-1.43 4.72-3.01 4.72-.838 0-1.7-.438-2.21-1.01l-1.49 1.7a5.28 5.28 0 0 0 3.87 1.6zm47.86 65.15c0 1.73-.857 2.59-1.9 2.59-1.2 0-2.17-.952-2.42-3.51.648-1.09 1.54-1.52 2.32-1.52 1.22 0 2 .781 2 2.44zm-1.52-9.93c-2.8 0-5.41 2.31-5.41 7.64 0 4.9 2.4 6.99 5.07 6.99 2.42 0 4.44-1.81 4.44-4.71 0-2.99-1.7-4.44-4.04-4.44-.952 0-2.15.572-2.9 1.52.133-3.52 1.43-4.72 3.01-4.72.838 0 1.7.438 2.21 1.01l1.49-1.7a5.28 5.28 0 0 0-3.87-1.6z"/></svg>